<?xml version="1.0" encoding="utf-8" standalone="no"?>
<!DOCTYPE svg PUBLIC "-//W3C//DTD SVG 1.1//EN"
  "http://www.w3.org/Graphics/SVG/1.1/DTD/svg11.dtd">
<!-- Created with matplotlib (https://matplotlib.org/) -->
<svg height="345.6pt" version="1.1" viewBox="0 0 460.8 345.6" width="460.8pt" xmlns="http://www.w3.org/2000/svg" xmlns:xlink="http://www.w3.org/1999/xlink">
 <defs>
  <style type="text/css">
*{stroke-linecap:butt;stroke-linejoin:round;}
  </style>
 </defs>
 <g id="figure_1">
  <g id="patch_1">
   <path d="M 0 345.6 
L 460.8 345.6 
L 460.8 0 
L 0 0 
z
" style="fill:#ffffff;"/>
  </g>
  <g id="axes_1">
   <g id="patch_2">
    <path d="M 142.159924 101.132138 
C 125.750174 120.688516 116.113441 145.046918 114.701835 170.5369 
C 113.290228 196.026882 120.178401 221.300415 134.328409 242.549157 
C 148.478417 263.7979 169.141943 279.898121 193.205303 288.423759 
C 217.268663 296.949396 243.459276 297.449576 267.830611 289.848927 
L 232.658177 177.069189 
L 142.159924 101.132138 
z
" style="fill:#4c4000;opacity:0.5;stroke:#4c4000;stroke-linejoin:miter;"/>
   </g>
   <g id="patch_3">
    <path d="M 267.830611 289.848927 
C 272.345875 288.440759 276.772501 286.7627 281.086579 284.823814 
C 285.400658 282.884929 289.594407 280.688713 293.645176 278.247029 
L 232.658177 177.069189 
L 267.830611 289.848927 
z
" style="fill:#2e3e0f;opacity:0.5;stroke:#2e3e0f;stroke-linejoin:miter;"/>
   </g>
   <g id="patch_4">
    <path d="M 293.645176 278.247029 
C 308.146383 269.506132 320.600376 257.748973 330.160844 243.774506 
C 339.721313 229.80004 346.166679 213.932148 349.058948 197.249131 
C 351.951217 180.566114 351.223355 163.454627 346.924826 147.077481 
C 342.626296 130.700335 334.856724 115.437095 324.144088 102.324974 
C 313.431453 89.212853 300.024038 78.555745 284.832942 71.077852 
C 269.641846 63.599959 253.019148 59.474594 236.09444 58.982095 
C 219.169733 58.489596 202.335274 61.641379 186.735047 68.223263 
C 171.13482 74.805146 157.130385 84.664587 145.673413 97.131586 
L 232.658177 177.069189 
L 293.645176 278.247029 
z
" style="fill:#482626;opacity:0.5;stroke:#482626;stroke-linejoin:miter;"/>
   </g>
   <g id="patch_5">
    <path d="M 145.673413 97.131586 
C 145.655263 97.151336 145.637119 97.171093 145.618982 97.190856 
C 145.600845 97.210619 145.582714 97.230388 145.564591 97.250164 
L 232.658177 177.069189 
L 145.673413 97.131586 
z
" style="fill:#283e4b;opacity:0.5;stroke:#283e4b;stroke-linejoin:miter;"/>
   </g>
   <g id="patch_6">
    <path d="M 145.564591 97.250164 
C 144.983091 97.88466 144.408542 98.525492 143.841048 99.172545 
C 143.273553 99.819598 142.713146 100.472833 142.159927 101.132133 
L 232.658177 177.069189 
L 145.564591 97.250164 
z
" style="fill:#00004c;opacity:0.5;stroke:#00004c;stroke-linejoin:miter;"/>
   </g>
   <g id="patch_7">
    <path d="M 142.159924 101.132138 
C 130.053749 115.559715 121.571422 132.675306 117.422797 151.046571 
C 113.274171 169.417836 113.578296 188.517596 118.309721 206.747465 
C 123.041145 224.977333 132.064096 241.814187 144.623477 255.849016 
C 157.182859 269.883844 172.918268 280.713905 190.512868 287.432871 
L 232.658177 177.069189 
L 142.159924 101.132138 
z
" style="fill:#4c4000;opacity:0.5;stroke:#4c4000;stroke-linejoin:miter;"/>
   </g>
   <g id="patch_8">
    <path d="M 190.512868 287.432871 
C 217.793592 297.850742 247.991253 297.792162 275.231352 287.268527 
C 302.471452 276.744893 324.865123 256.485929 338.056015 230.432709 
C 351.246907 204.379489 354.320345 174.338581 346.678439 146.153991 
C 339.036532 117.9694 321.209181 93.595485 296.664427 77.773824 
L 232.658177 177.069189 
L 190.512868 287.432871 
z
" style="fill:#2e3e0f;opacity:0.5;stroke:#2e3e0f;stroke-linejoin:miter;"/>
   </g>
   <g id="patch_9">
    <path d="M 296.664427 77.773824 
C 296.464313 77.64483 296.26381 77.51644 296.06292 77.388658 
C 295.862029 77.260876 295.660753 77.133701 295.459094 77.007136 
L 232.658177 177.069189 
L 296.664427 77.773824 
z
" style="fill:#482626;opacity:0.5;stroke:#482626;stroke-linejoin:miter;"/>
   </g>
   <g id="patch_10">
    <path d="M 295.459094 77.007136 
C 294.343888 76.307211 293.217059 75.625978 292.079079 74.963724 
C 290.9411 74.30147 289.792128 73.658286 288.632646 73.034443 
L 232.658177 177.069189 
L 295.459094 77.007136 
z
" style="fill:#283e4b;opacity:0.5;stroke:#283e4b;stroke-linejoin:miter;"/>
   </g>
   <g id="patch_11">
    <path d="M 288.632646 73.034443 
C 264.714781 60.165763 237.07557 55.930742 210.40188 61.047524 
C 183.72819 66.164305 159.618064 80.326341 142.159932 101.132128 
L 232.658177 177.069189 
L 288.632646 73.034443 
z
" style="fill:#00004c;opacity:0.5;stroke:#00004c;stroke-linejoin:miter;"/>
   </g>
   <g id="patch_12">
    <path d="M 142.159924 101.132138 
C 142.159924 101.132138 142.159924 101.132138 142.159924 101.132138 
L 232.658177 177.069189 
L 142.159924 101.132138 
z
" style="fill:#4c4000;opacity:0.5;stroke:#4c4000;stroke-linejoin:miter;"/>
   </g>
   <g id="patch_13">
    <path d="M 142.159924 101.132138 
C 132.498568 112.646094 125.122737 125.898772 120.429064 140.177512 
C 115.735392 154.456253 113.809548 169.500437 114.755095 184.501068 
C 115.700642 199.501699 119.500321 214.184982 125.949805 227.761327 
C 132.399289 241.337672 141.380862 253.559281 152.41154 263.768939 
C 163.442218 273.978597 176.320668 281.989957 190.354355 287.372208 
C 204.388041 292.75446 219.320819 295.409365 234.34968 295.194158 
C 249.378541 294.97895 264.229177 291.897558 278.102998 286.115682 
C 291.976818 280.333807 304.620596 271.956979 315.354415 261.435662 
C 326.088234 250.914344 334.716178 238.440574 340.774282 224.685125 
C 346.832385 210.929677 350.210075 196.143617 350.725716 181.122062 
C 351.241357 166.100508 348.885538 151.117635 343.784942 136.979144 
C 338.684346 122.840654 330.932071 109.804604 320.944993 98.572006 
C 310.957915 87.339408 298.918321 78.115281 285.473636 71.39565 
C 272.028952 64.676019 257.424571 60.583532 242.445844 59.338262 
C 227.467116 58.092992 212.387434 59.717668 198.017706 64.124922 
C 183.647978 68.532177 170.250481 75.641569 158.545664 85.070792 
L 232.658177 177.069189 
L 142.159924 101.132138 
z
" style="fill:#2e3e0f;opacity:0.5;stroke:#2e3e0f;stroke-linejoin:miter;"/>
   </g>
   <g id="patch_14">
    <path d="M 158.545664 85.070792 
C 158.545664 85.070792 158.545664 85.070792 158.545664 85.070792 
L 232.658177 177.069189 
L 158.545664 85.070792 
z
" style="fill:#482626;opacity:0.5;stroke:#482626;stroke-linejoin:miter;"/>
   </g>
   <g id="patch_15">
    <path d="M 158.545664 85.070792 
C 158.527287 85.085596 158.508915 85.100406 158.490546 85.115221 
C 158.472178 85.130037 158.453814 85.144858 158.435455 85.159684 
L 232.658177 177.069189 
L 158.545664 85.070792 
z
" style="fill:#283e4b;opacity:0.5;stroke:#283e4b;stroke-linejoin:miter;"/>
   </g>
   <g id="patch_16">
    <path d="M 158.435455 85.159684 
C 155.473414 87.551719 152.628739 90.085546 149.911391 92.752293 
C 147.194043 95.419039 144.607199 98.215589 142.159915 101.132148 
L 232.658177 177.069189 
L 158.435455 85.159684 
z
" style="fill:#00004c;opacity:0.5;stroke:#00004c;stroke-linejoin:miter;"/>
   </g>
   <g id="patch_17">
    <path d="M 144.522665 98.769396 
C 128.112916 118.325774 118.476183 142.684177 117.064576 168.174158 
C 115.65297 193.66414 122.541143 218.937673 136.691151 240.186416 
C 150.841159 261.435159 171.504684 277.535379 195.568045 286.061017 
C 219.631405 294.586655 245.822018 295.086834 270.193352 287.486186 
L 235.020919 174.706447 
L 144.522665 98.769396 
z
" style="fill:#ffd700;"/>
   </g>
   <g id="patch_18">
    <path d="M 270.193352 287.486186 
C 274.708617 286.078017 279.135243 284.399959 283.449321 282.461073 
C 287.763399 280.522187 291.957149 278.325971 296.007918 275.884288 
L 235.020919 174.706447 
L 270.193352 287.486186 
z
" style="fill:#9acd32;"/>
   </g>
   <g id="patch_19">
    <path d="M 296.007918 275.884288 
C 310.509125 267.143391 322.963117 255.386231 332.523586 241.411765 
C 342.084055 227.437298 348.529421 211.569406 351.42169 194.886389 
C 354.313958 178.203372 353.586097 161.091886 349.287567 144.71474 
C 344.989038 128.337593 337.219465 113.074354 326.50683 99.962233 
C 315.794195 86.850111 302.386779 76.193003 287.195683 68.71511 
C 272.004588 61.237218 255.381889 57.111852 238.457182 56.619354 
C 221.532474 56.126855 204.698015 59.278637 189.097788 65.860521 
C 173.497561 72.442405 159.493127 82.301845 148.036155 94.768844 
L 235.020919 174.706447 
L 296.007918 275.884288 
z
" style="fill:#f08080;"/>
   </g>
   <g id="patch_20">
    <path d="M 148.036155 94.768844 
C 148.018004 94.788595 147.99986 94.808351 147.981723 94.828115 
C 147.963586 94.847878 147.945456 94.867647 147.927332 94.887422 
L 235.020919 174.706447 
L 148.036155 94.768844 
z
" style="fill:#87cefa;"/>
   </g>
   <g id="patch_21">
    <path d="M 147.927332 94.887422 
C 147.345833 95.521919 146.771284 96.162751 146.203789 96.809804 
C 145.636295 97.456857 145.075888 98.110092 144.522669 98.769392 
L 235.020919 174.706447 
L 147.927332 94.887422 
z
" style="fill:#0000ff;"/>
   </g>
   <g id="patch_22">
    <path d="M 144.522665 98.769396 
C 132.41649 113.196974 123.934163 130.312565 119.785538 148.68383 
C 115.636913 167.055095 115.941038 186.154855 120.672462 204.384723 
C 125.403887 222.614591 134.426838 239.451446 146.986219 253.486274 
C 159.5456 267.521103 175.28101 278.351164 192.87561 285.07013 
L 235.020919 174.706447 
L 144.522665 98.769396 
z
" style="fill:#ffd700;"/>
   </g>
   <g id="patch_23">
    <path d="M 192.87561 285.07013 
C 220.156334 295.488 250.353994 295.42942 277.594094 284.905786 
C 304.834193 274.382152 327.227864 254.123187 340.418757 228.069967 
C 353.609649 202.016748 356.683087 171.97584 349.04118 143.791249 
C 341.399274 115.606658 323.571923 91.232744 299.027169 75.411082 
L 235.020919 174.706447 
L 192.87561 285.07013 
z
" style="fill:#9acd32;"/>
   </g>
   <g id="patch_24">
    <path d="M 299.027169 75.411082 
C 298.827055 75.282088 298.626551 75.153699 298.425661 75.025917 
C 298.224771 74.898134 298.023495 74.77096 297.821835 74.644394 
L 235.020919 174.706447 
L 299.027169 75.411082 
z
" style="fill:#f08080;"/>
   </g>
   <g id="patch_25">
    <path d="M 297.821835 74.644394 
C 296.70663 73.944469 295.579801 73.263237 294.441821 72.600982 
C 293.303841 71.938728 292.15487 71.295544 290.995388 70.671701 
L 235.020919 174.706447 
L 297.821835 74.644394 
z
" style="fill:#87cefa;"/>
   </g>
   <g id="patch_26">
    <path d="M 290.995388 70.671701 
C 267.077523 57.803022 239.438311 53.568 212.764622 58.684782 
C 186.090932 63.801564 161.980806 77.963599 144.522674 98.769386 
L 235.020919 174.706447 
L 290.995388 70.671701 
z
" style="fill:#0000ff;"/>
   </g>
   <g id="patch_27">
    <path d="M 144.522665 98.769396 
C 144.522665 98.769396 144.522665 98.769396 144.522665 98.769396 
L 235.020919 174.706447 
L 144.522665 98.769396 
z
" style="fill:#ffd700;"/>
   </g>
   <g id="patch_28">
    <path d="M 144.522665 98.769396 
C 134.861309 110.283352 127.485478 123.53603 122.791806 137.814771 
C 118.098134 152.093511 116.17229 167.137696 117.117837 182.138327 
C 118.063384 197.138957 121.863063 211.822241 128.312547 225.398585 
C 134.762031 238.97493 143.743603 251.196539 154.774281 261.406198 
C 165.804959 271.615856 178.68341 279.627215 192.717096 285.009467 
C 206.750783 290.391718 221.68356 293.046624 236.712422 292.831416 
C 251.741283 292.616209 266.591919 289.534817 280.465739 283.752941 
C 294.33956 277.971065 306.983338 269.594237 317.717157 259.07292 
C 328.450975 248.551603 337.07892 236.077832 343.137023 222.322384 
C 349.195127 208.566935 352.572817 193.780875 353.088458 178.759321 
C 353.604099 163.737766 351.248279 148.754893 346.147684 134.616403 
C 341.047088 120.477913 333.294812 107.441863 323.307735 96.209265 
C 313.320657 84.976667 301.281062 75.752539 287.836378 69.032908 
C 274.391693 62.313277 259.787313 58.22079 244.808585 56.97552 
C 229.829857 55.73025 214.750176 57.354926 200.380448 61.762181 
C 186.010719 66.169435 172.613223 73.278828 160.908406 82.70805 
L 235.020919 174.706447 
L 144.522665 98.769396 
z
" style="fill:#9acd32;"/>
   </g>
   <g id="patch_29">
    <path d="M 160.908406 82.70805 
C 160.908406 82.70805 160.908406 82.70805 160.908406 82.70805 
L 235.020919 174.706447 
L 160.908406 82.70805 
z
" style="fill:#f08080;"/>
   </g>
   <g id="patch_30">
    <path d="M 160.908406 82.70805 
C 160.890029 82.722855 160.871656 82.737665 160.853288 82.75248 
C 160.83492 82.767295 160.816556 82.782116 160.798197 82.796942 
L 235.020919 174.706447 
L 160.908406 82.70805 
z
" style="fill:#87cefa;"/>
   </g>
   <g id="patch_31">
    <path d="M 160.798197 82.796942 
C 157.836156 85.188977 154.991481 87.722804 152.274133 90.389551 
C 149.556785 93.056298 146.96994 95.852847 144.522657 98.769407 
L 235.020919 174.706447 
L 160.798197 82.796942 
z
" style="fill:#0000ff;"/>
   </g>
   <g id="matplotlib.axis_1"/>
   <g id="matplotlib.axis_2"/>
   <g id="text_1">
    <!-- ON_FOOT -->
    <defs>
     <path d="M 39.40625 66.21875 
Q 28.65625 66.21875 22.328125 58.203125 
Q 16.015625 50.203125 16.015625 36.375 
Q 16.015625 22.609375 22.328125 14.59375 
Q 28.65625 6.59375 39.40625 6.59375 
Q 50.140625 6.59375 56.421875 14.59375 
Q 62.703125 22.609375 62.703125 36.375 
Q 62.703125 50.203125 56.421875 58.203125 
Q 50.140625 66.21875 39.40625 66.21875 
z
M 39.40625 74.21875 
Q 54.734375 74.21875 63.90625 63.9375 
Q 73.09375 53.65625 73.09375 36.375 
Q 73.09375 19.140625 63.90625 8.859375 
Q 54.734375 -1.421875 39.40625 -1.421875 
Q 24.03125 -1.421875 14.8125 8.828125 
Q 5.609375 19.09375 5.609375 36.375 
Q 5.609375 53.65625 14.8125 63.9375 
Q 24.03125 74.21875 39.40625 74.21875 
z
" id="DejaVuSans-79"/>
     <path d="M 9.8125 72.90625 
L 23.09375 72.90625 
L 55.421875 11.921875 
L 55.421875 72.90625 
L 64.984375 72.90625 
L 64.984375 0 
L 51.703125 0 
L 19.390625 60.984375 
L 19.390625 0 
L 9.8125 0 
z
" id="DejaVuSans-78"/>
     <path d="M 50.984375 -16.609375 
L 50.984375 -23.578125 
L -0.984375 -23.578125 
L -0.984375 -16.609375 
z
" id="DejaVuSans-95"/>
     <path d="M 9.8125 72.90625 
L 51.703125 72.90625 
L 51.703125 64.59375 
L 19.671875 64.59375 
L 19.671875 43.109375 
L 48.578125 43.109375 
L 48.578125 34.8125 
L 19.671875 34.8125 
L 19.671875 0 
L 9.8125 0 
z
" id="DejaVuSans-70"/>
     <path d="M -0.296875 72.90625 
L 61.375 72.90625 
L 61.375 64.59375 
L 35.5 64.59375 
L 35.5 0 
L 25.59375 0 
L 25.59375 64.59375 
L -0.296875 64.59375 
z
" id="DejaVuSans-84"/>
    </defs>
    <g transform="translate(78.901924 249.266444)scale(0.1 -0.1)">
     <use xlink:href="#DejaVuSans-79"/>
     <use x="78.710938" xlink:href="#DejaVuSans-78"/>
     <use x="153.515625" xlink:href="#DejaVuSans-95"/>
     <use x="203.515625" xlink:href="#DejaVuSans-70"/>
     <use x="261.035156" xlink:href="#DejaVuSans-79"/>
     <use x="339.746094" xlink:href="#DejaVuSans-79"/>
     <use x="418.457031" xlink:href="#DejaVuSans-84"/>
    </g>
   </g>
   <g id="text_2">
    <!-- 40.9% -->
    <defs>
     <path d="M 37.796875 64.3125 
L 12.890625 25.390625 
L 37.796875 25.390625 
z
M 35.203125 72.90625 
L 47.609375 72.90625 
L 47.609375 25.390625 
L 58.015625 25.390625 
L 58.015625 17.1875 
L 47.609375 17.1875 
L 47.609375 0 
L 37.796875 0 
L 37.796875 17.1875 
L 4.890625 17.1875 
L 4.890625 26.703125 
z
" id="DejaVuSans-52"/>
     <path d="M 31.78125 66.40625 
Q 24.171875 66.40625 20.328125 58.90625 
Q 16.5 51.421875 16.5 36.375 
Q 16.5 21.390625 20.328125 13.890625 
Q 24.171875 6.390625 31.78125 6.390625 
Q 39.453125 6.390625 43.28125 13.890625 
Q 47.125 21.390625 47.125 36.375 
Q 47.125 51.421875 43.28125 58.90625 
Q 39.453125 66.40625 31.78125 66.40625 
z
M 31.78125 74.21875 
Q 44.046875 74.21875 50.515625 64.515625 
Q 56.984375 54.828125 56.984375 36.375 
Q 56.984375 17.96875 50.515625 8.265625 
Q 44.046875 -1.421875 31.78125 -1.421875 
Q 19.53125 -1.421875 13.0625 8.265625 
Q 6.59375 17.96875 6.59375 36.375 
Q 6.59375 54.828125 13.0625 64.515625 
Q 19.53125 74.21875 31.78125 74.21875 
z
" id="DejaVuSans-48"/>
     <path d="M 10.6875 12.40625 
L 21 12.40625 
L 21 0 
L 10.6875 0 
z
" id="DejaVuSans-46"/>
     <path d="M 10.984375 1.515625 
L 10.984375 10.5 
Q 14.703125 8.734375 18.5 7.8125 
Q 22.3125 6.890625 25.984375 6.890625 
Q 35.75 6.890625 40.890625 13.453125 
Q 46.046875 20.015625 46.78125 33.40625 
Q 43.953125 29.203125 39.59375 26.953125 
Q 35.25 24.703125 29.984375 24.703125 
Q 19.046875 24.703125 12.671875 31.3125 
Q 6.296875 37.9375 6.296875 49.421875 
Q 6.296875 60.640625 12.9375 67.421875 
Q 19.578125 74.21875 30.609375 74.21875 
Q 43.265625 74.21875 49.921875 64.515625 
Q 56.59375 54.828125 56.59375 36.375 
Q 56.59375 19.140625 48.40625 8.859375 
Q 40.234375 -1.421875 26.421875 -1.421875 
Q 22.703125 -1.421875 18.890625 -0.6875 
Q 15.09375 0.046875 10.984375 1.515625 
z
M 30.609375 32.421875 
Q 37.25 32.421875 41.125 36.953125 
Q 45.015625 41.5 45.015625 49.421875 
Q 45.015625 57.28125 41.125 61.84375 
Q 37.25 66.40625 30.609375 66.40625 
Q 23.96875 66.40625 20.09375 61.84375 
Q 16.21875 57.28125 16.21875 49.421875 
Q 16.21875 41.5 20.09375 36.953125 
Q 23.96875 32.421875 30.609375 32.421875 
z
" id="DejaVuSans-57"/>
     <path d="M 72.703125 32.078125 
Q 68.453125 32.078125 66.03125 28.46875 
Q 63.625 24.859375 63.625 18.40625 
Q 63.625 12.0625 66.03125 8.421875 
Q 68.453125 4.78125 72.703125 4.78125 
Q 76.859375 4.78125 79.265625 8.421875 
Q 81.6875 12.0625 81.6875 18.40625 
Q 81.6875 24.8125 79.265625 28.4375 
Q 76.859375 32.078125 72.703125 32.078125 
z
M 72.703125 38.28125 
Q 80.421875 38.28125 84.953125 32.90625 
Q 89.5 27.546875 89.5 18.40625 
Q 89.5 9.28125 84.9375 3.921875 
Q 80.375 -1.421875 72.703125 -1.421875 
Q 64.890625 -1.421875 60.34375 3.921875 
Q 55.8125 9.28125 55.8125 18.40625 
Q 55.8125 27.59375 60.375 32.9375 
Q 64.9375 38.28125 72.703125 38.28125 
z
M 22.3125 68.015625 
Q 18.109375 68.015625 15.6875 64.375 
Q 13.28125 60.75 13.28125 54.390625 
Q 13.28125 47.953125 15.671875 44.328125 
Q 18.0625 40.71875 22.3125 40.71875 
Q 26.5625 40.71875 28.96875 44.328125 
Q 31.390625 47.953125 31.390625 54.390625 
Q 31.390625 60.6875 28.953125 64.34375 
Q 26.515625 68.015625 22.3125 68.015625 
z
M 66.40625 74.21875 
L 74.21875 74.21875 
L 28.609375 -1.421875 
L 20.796875 -1.421875 
z
M 22.3125 74.21875 
Q 30.03125 74.21875 34.609375 68.875 
Q 39.203125 63.53125 39.203125 54.390625 
Q 39.203125 45.171875 34.640625 39.84375 
Q 30.078125 34.515625 22.3125 34.515625 
Q 14.546875 34.515625 10.03125 39.859375 
Q 5.515625 45.21875 5.515625 54.390625 
Q 5.515625 63.484375 10.046875 68.84375 
Q 14.59375 74.21875 22.3125 74.21875 
z
" id="DejaVuSans-37"/>
    </defs>
    <g transform="translate(160.139464 216.753803)scale(0.1 -0.1)">
     <use xlink:href="#DejaVuSans-52"/>
     <use x="63.623047" xlink:href="#DejaVuSans-48"/>
     <use x="127.246094" xlink:href="#DejaVuSans-46"/>
     <use x="159.033203" xlink:href="#DejaVuSans-57"/>
     <use x="222.65625" xlink:href="#DejaVuSans-37"/>
    </g>
   </g>
   <g id="text_3">
    <!-- ON_VEHICLE -->
    <defs>
     <path d="M 28.609375 0 
L 0.78125 72.90625 
L 11.078125 72.90625 
L 34.1875 11.53125 
L 57.328125 72.90625 
L 67.578125 72.90625 
L 39.796875 0 
z
" id="DejaVuSans-86"/>
     <path d="M 9.8125 72.90625 
L 55.90625 72.90625 
L 55.90625 64.59375 
L 19.671875 64.59375 
L 19.671875 43.015625 
L 54.390625 43.015625 
L 54.390625 34.71875 
L 19.671875 34.71875 
L 19.671875 8.296875 
L 56.78125 8.296875 
L 56.78125 0 
L 9.8125 0 
z
" id="DejaVuSans-69"/>
     <path d="M 9.8125 72.90625 
L 19.671875 72.90625 
L 19.671875 43.015625 
L 55.515625 43.015625 
L 55.515625 72.90625 
L 65.375 72.90625 
L 65.375 0 
L 55.515625 0 
L 55.515625 34.71875 
L 19.671875 34.71875 
L 19.671875 0 
L 9.8125 0 
z
" id="DejaVuSans-72"/>
     <path d="M 9.8125 72.90625 
L 19.671875 72.90625 
L 19.671875 0 
L 9.8125 0 
z
" id="DejaVuSans-73"/>
     <path d="M 64.40625 67.28125 
L 64.40625 56.890625 
Q 59.421875 61.53125 53.78125 63.8125 
Q 48.140625 66.109375 41.796875 66.109375 
Q 29.296875 66.109375 22.65625 58.46875 
Q 16.015625 50.828125 16.015625 36.375 
Q 16.015625 21.96875 22.65625 14.328125 
Q 29.296875 6.6875 41.796875 6.6875 
Q 48.140625 6.6875 53.78125 8.984375 
Q 59.421875 11.28125 64.40625 15.921875 
L 64.40625 5.609375 
Q 59.234375 2.09375 53.4375 0.328125 
Q 47.65625 -1.421875 41.21875 -1.421875 
Q 24.65625 -1.421875 15.125 8.703125 
Q 5.609375 18.84375 5.609375 36.375 
Q 5.609375 53.953125 15.125 64.078125 
Q 24.65625 74.21875 41.21875 74.21875 
Q 47.75 74.21875 53.53125 72.484375 
Q 59.328125 70.75 64.40625 67.28125 
z
" id="DejaVuSans-67"/>
     <path d="M 9.8125 72.90625 
L 19.671875 72.90625 
L 19.671875 8.296875 
L 55.171875 8.296875 
L 55.171875 0 
L 9.8125 0 
z
" id="DejaVuSans-76"/>
    </defs>
    <g transform="translate(288.292161 295.768567)scale(0.1 -0.1)">
     <use xlink:href="#DejaVuSans-79"/>
     <use x="78.710938" xlink:href="#DejaVuSans-78"/>
     <use x="153.515625" xlink:href="#DejaVuSans-95"/>
     <use x="203.515625" xlink:href="#DejaVuSans-86"/>
     <use x="271.923828" xlink:href="#DejaVuSans-69"/>
     <use x="335.107422" xlink:href="#DejaVuSans-72"/>
     <use x="410.302734" xlink:href="#DejaVuSans-73"/>
     <use x="439.794922" xlink:href="#DejaVuSans-67"/>
     <use x="509.619141" xlink:href="#DejaVuSans-76"/>
     <use x="565.332031" xlink:href="#DejaVuSans-69"/>
    </g>
   </g>
   <g id="text_4">
    <!-- 3.8% -->
    <defs>
     <path d="M 40.578125 39.3125 
Q 47.65625 37.796875 51.625 33 
Q 55.609375 28.21875 55.609375 21.1875 
Q 55.609375 10.40625 48.1875 4.484375 
Q 40.765625 -1.421875 27.09375 -1.421875 
Q 22.515625 -1.421875 17.65625 -0.515625 
Q 12.796875 0.390625 7.625 2.203125 
L 7.625 11.71875 
Q 11.71875 9.328125 16.59375 8.109375 
Q 21.484375 6.890625 26.8125 6.890625 
Q 36.078125 6.890625 40.9375 10.546875 
Q 45.796875 14.203125 45.796875 21.1875 
Q 45.796875 27.640625 41.28125 31.265625 
Q 36.765625 34.90625 28.71875 34.90625 
L 20.21875 34.90625 
L 20.21875 43.015625 
L 29.109375 43.015625 
Q 36.375 43.015625 40.234375 45.921875 
Q 44.09375 48.828125 44.09375 54.296875 
Q 44.09375 59.90625 40.109375 62.90625 
Q 36.140625 65.921875 28.71875 65.921875 
Q 24.65625 65.921875 20.015625 65.03125 
Q 15.375 64.15625 9.8125 62.3125 
L 9.8125 71.09375 
Q 15.4375 72.65625 20.34375 73.4375 
Q 25.25 74.21875 29.59375 74.21875 
Q 40.828125 74.21875 47.359375 69.109375 
Q 53.90625 64.015625 53.90625 55.328125 
Q 53.90625 49.265625 50.4375 45.09375 
Q 46.96875 40.921875 40.578125 39.3125 
z
" id="DejaVuSans-51"/>
     <path d="M 31.78125 34.625 
Q 24.75 34.625 20.71875 30.859375 
Q 16.703125 27.09375 16.703125 20.515625 
Q 16.703125 13.921875 20.71875 10.15625 
Q 24.75 6.390625 31.78125 6.390625 
Q 38.8125 6.390625 42.859375 10.171875 
Q 46.921875 13.96875 46.921875 20.515625 
Q 46.921875 27.09375 42.890625 30.859375 
Q 38.875 34.625 31.78125 34.625 
z
M 21.921875 38.8125 
Q 15.578125 40.375 12.03125 44.71875 
Q 8.5 49.078125 8.5 55.328125 
Q 8.5 64.0625 14.71875 69.140625 
Q 20.953125 74.21875 31.78125 74.21875 
Q 42.671875 74.21875 48.875 69.140625 
Q 55.078125 64.0625 55.078125 55.328125 
Q 55.078125 49.078125 51.53125 44.71875 
Q 48 40.375 41.703125 38.8125 
Q 48.828125 37.15625 52.796875 32.3125 
Q 56.78125 27.484375 56.78125 20.515625 
Q 56.78125 9.90625 50.3125 4.234375 
Q 43.84375 -1.421875 31.78125 -1.421875 
Q 19.734375 -1.421875 13.25 4.234375 
Q 6.78125 9.90625 6.78125 20.515625 
Q 6.78125 27.484375 10.78125 32.3125 
Q 14.796875 37.15625 21.921875 38.8125 
z
M 18.3125 54.390625 
Q 18.3125 48.734375 21.84375 45.5625 
Q 25.390625 42.390625 31.78125 42.390625 
Q 38.140625 42.390625 41.71875 45.5625 
Q 45.3125 48.734375 45.3125 54.390625 
Q 45.3125 60.0625 41.71875 63.234375 
Q 38.140625 66.40625 31.78125 66.40625 
Q 25.390625 66.40625 21.84375 63.234375 
Q 18.3125 60.0625 18.3125 54.390625 
z
" id="DejaVuSans-56"/>
    </defs>
    <g transform="translate(251.375616 242.118598)scale(0.1 -0.1)">
     <use xlink:href="#DejaVuSans-51"/>
     <use x="63.623047" xlink:href="#DejaVuSans-46"/>
     <use x="95.410156" xlink:href="#DejaVuSans-56"/>
     <use x="159.033203" xlink:href="#DejaVuSans-37"/>
    </g>
   </g>
   <g id="text_5">
    <!-- STILL -->
    <defs>
     <path d="M 53.515625 70.515625 
L 53.515625 60.890625 
Q 47.90625 63.578125 42.921875 64.890625 
Q 37.9375 66.21875 33.296875 66.21875 
Q 25.25 66.21875 20.875 63.09375 
Q 16.5 59.96875 16.5 54.203125 
Q 16.5 49.359375 19.40625 46.890625 
Q 22.3125 44.4375 30.421875 42.921875 
L 36.375 41.703125 
Q 47.40625 39.59375 52.65625 34.296875 
Q 57.90625 29 57.90625 20.125 
Q 57.90625 9.515625 50.796875 4.046875 
Q 43.703125 -1.421875 29.984375 -1.421875 
Q 24.8125 -1.421875 18.96875 -0.25 
Q 13.140625 0.921875 6.890625 3.21875 
L 6.890625 13.375 
Q 12.890625 10.015625 18.65625 8.296875 
Q 24.421875 6.59375 29.984375 6.59375 
Q 38.421875 6.59375 43.015625 9.90625 
Q 47.609375 13.234375 47.609375 19.390625 
Q 47.609375 24.75 44.3125 27.78125 
Q 41.015625 30.8125 33.5 32.328125 
L 27.484375 33.5 
Q 16.453125 35.6875 11.515625 40.375 
Q 6.59375 45.0625 6.59375 53.421875 
Q 6.59375 63.09375 13.40625 68.65625 
Q 20.21875 74.21875 32.171875 74.21875 
Q 37.3125 74.21875 42.625 73.28125 
Q 47.953125 72.359375 53.515625 70.515625 
z
" id="DejaVuSans-83"/>
    </defs>
    <g transform="translate(335.655421 95.247186)scale(0.1 -0.1)">
     <use xlink:href="#DejaVuSans-83"/>
     <use x="63.476562" xlink:href="#DejaVuSans-84"/>
     <use x="124.560547" xlink:href="#DejaVuSans-73"/>
     <use x="154.052734" xlink:href="#DejaVuSans-76"/>
     <use x="209.765625" xlink:href="#DejaVuSans-76"/>
    </g>
   </g>
   <g id="text_6">
    <!-- 54.5% -->
    <defs>
     <path d="M 10.796875 72.90625 
L 49.515625 72.90625 
L 49.515625 64.59375 
L 19.828125 64.59375 
L 19.828125 46.734375 
Q 21.96875 47.46875 24.109375 47.828125 
Q 26.265625 48.1875 28.421875 48.1875 
Q 40.625 48.1875 47.75 41.5 
Q 54.890625 34.8125 54.890625 23.390625 
Q 54.890625 11.625 47.5625 5.09375 
Q 40.234375 -1.421875 26.90625 -1.421875 
Q 22.3125 -1.421875 17.546875 -0.640625 
Q 12.796875 0.140625 7.71875 1.703125 
L 7.71875 11.625 
Q 12.109375 9.234375 16.796875 8.0625 
Q 21.484375 6.890625 26.703125 6.890625 
Q 35.15625 6.890625 40.078125 11.328125 
Q 45.015625 15.765625 45.015625 23.390625 
Q 45.015625 31 40.078125 35.4375 
Q 35.15625 39.890625 26.703125 39.890625 
Q 22.75 39.890625 18.8125 39.015625 
Q 14.890625 38.140625 10.796875 36.28125 
z
" id="DejaVuSans-53"/>
    </defs>
    <g transform="translate(274.028872 132.619293)scale(0.1 -0.1)">
     <use xlink:href="#DejaVuSans-53"/>
     <use x="63.623047" xlink:href="#DejaVuSans-52"/>
     <use x="127.246094" xlink:href="#DejaVuSans-46"/>
     <use x="159.033203" xlink:href="#DejaVuSans-53"/>
     <use x="222.65625" xlink:href="#DejaVuSans-37"/>
    </g>
   </g>
   <g id="text_7">
    <!-- TGV -->
    <defs>
     <path d="M 59.515625 10.40625 
L 59.515625 29.984375 
L 43.40625 29.984375 
L 43.40625 38.09375 
L 69.28125 38.09375 
L 69.28125 6.78125 
Q 63.578125 2.734375 56.6875 0.65625 
Q 49.8125 -1.421875 42 -1.421875 
Q 24.90625 -1.421875 15.25 8.5625 
Q 5.609375 18.5625 5.609375 36.375 
Q 5.609375 54.25 15.25 64.234375 
Q 24.90625 74.21875 42 74.21875 
Q 49.125 74.21875 55.546875 72.453125 
Q 61.96875 70.703125 67.390625 67.28125 
L 67.390625 56.78125 
Q 61.921875 61.421875 55.765625 63.765625 
Q 49.609375 66.109375 42.828125 66.109375 
Q 29.4375 66.109375 22.71875 58.640625 
Q 16.015625 51.171875 16.015625 36.375 
Q 16.015625 21.625 22.71875 14.15625 
Q 29.4375 6.6875 42.828125 6.6875 
Q 48.046875 6.6875 52.140625 7.59375 
Q 56.25 8.5 59.515625 10.40625 
z
" id="DejaVuSans-71"/>
    </defs>
    <g transform="translate(118.580929 89.599656)scale(0.1 -0.1)">
     <use xlink:href="#DejaVuSans-84"/>
     <use x="61.083984" xlink:href="#DejaVuSans-71"/>
     <use x="138.574219" xlink:href="#DejaVuSans-86"/>
    </g>
   </g>
   <g id="text_8">
    <!-- 0.0% -->
    <g transform="translate(170.095058 129.538823)scale(0.1 -0.1)">
     <use xlink:href="#DejaVuSans-48"/>
     <use x="63.623047" xlink:href="#DejaVuSans-46"/>
     <use x="95.410156" xlink:href="#DejaVuSans-48"/>
     <use x="159.033203" xlink:href="#DejaVuSans-37"/>
    </g>
   </g>
   <g id="text_9">
    <!-- TRANSPORT_EN_COMMUN -->
    <defs>
     <path d="M 44.390625 34.1875 
Q 47.5625 33.109375 50.5625 29.59375 
Q 53.5625 26.078125 56.59375 19.921875 
L 66.609375 0 
L 56 0 
L 46.6875 18.703125 
Q 43.0625 26.03125 39.671875 28.421875 
Q 36.28125 30.8125 30.421875 30.8125 
L 19.671875 30.8125 
L 19.671875 0 
L 9.8125 0 
L 9.8125 72.90625 
L 32.078125 72.90625 
Q 44.578125 72.90625 50.734375 67.671875 
Q 56.890625 62.453125 56.890625 51.90625 
Q 56.890625 45.015625 53.6875 40.46875 
Q 50.484375 35.9375 44.390625 34.1875 
z
M 19.671875 64.796875 
L 19.671875 38.921875 
L 32.078125 38.921875 
Q 39.203125 38.921875 42.84375 42.21875 
Q 46.484375 45.515625 46.484375 51.90625 
Q 46.484375 58.296875 42.84375 61.546875 
Q 39.203125 64.796875 32.078125 64.796875 
z
" id="DejaVuSans-82"/>
     <path d="M 34.1875 63.1875 
L 20.796875 26.90625 
L 47.609375 26.90625 
z
M 28.609375 72.90625 
L 39.796875 72.90625 
L 67.578125 0 
L 57.328125 0 
L 50.6875 18.703125 
L 17.828125 18.703125 
L 11.1875 0 
L 0.78125 0 
z
" id="DejaVuSans-65"/>
     <path d="M 19.671875 64.796875 
L 19.671875 37.40625 
L 32.078125 37.40625 
Q 38.96875 37.40625 42.71875 40.96875 
Q 46.484375 44.53125 46.484375 51.125 
Q 46.484375 57.671875 42.71875 61.234375 
Q 38.96875 64.796875 32.078125 64.796875 
z
M 9.8125 72.90625 
L 32.078125 72.90625 
Q 44.34375 72.90625 50.609375 67.359375 
Q 56.890625 61.8125 56.890625 51.125 
Q 56.890625 40.328125 50.609375 34.8125 
Q 44.34375 29.296875 32.078125 29.296875 
L 19.671875 29.296875 
L 19.671875 0 
L 9.8125 0 
z
" id="DejaVuSans-80"/>
     <path d="M 9.8125 72.90625 
L 24.515625 72.90625 
L 43.109375 23.296875 
L 61.8125 72.90625 
L 76.515625 72.90625 
L 76.515625 0 
L 66.890625 0 
L 66.890625 64.015625 
L 48.09375 14.015625 
L 38.1875 14.015625 
L 19.390625 64.015625 
L 19.390625 0 
L 9.8125 0 
z
" id="DejaVuSans-77"/>
     <path d="M 8.6875 72.90625 
L 18.609375 72.90625 
L 18.609375 28.609375 
Q 18.609375 16.890625 22.84375 11.734375 
Q 27.09375 6.59375 36.625 6.59375 
Q 46.09375 6.59375 50.34375 11.734375 
Q 54.59375 16.890625 54.59375 28.609375 
L 54.59375 72.90625 
L 64.5 72.90625 
L 64.5 27.390625 
Q 64.5 13.140625 57.4375 5.859375 
Q 50.390625 -1.421875 36.625 -1.421875 
Q 22.796875 -1.421875 15.734375 5.859375 
Q 8.6875 13.140625 8.6875 27.390625 
z
" id="DejaVuSans-85"/>
    </defs>
    <g transform="translate(5.943951 91.552171)scale(0.1 -0.1)">
     <use xlink:href="#DejaVuSans-84"/>
     <use x="61.083984" xlink:href="#DejaVuSans-82"/>
     <use x="130.503906" xlink:href="#DejaVuSans-65"/>
     <use x="198.912109" xlink:href="#DejaVuSans-78"/>
     <use x="273.716797" xlink:href="#DejaVuSans-83"/>
     <use x="337.193359" xlink:href="#DejaVuSans-80"/>
     <use x="397.496094" xlink:href="#DejaVuSans-79"/>
     <use x="476.207031" xlink:href="#DejaVuSans-82"/>
     <use x="545.580078" xlink:href="#DejaVuSans-84"/>
     <use x="606.664062" xlink:href="#DejaVuSans-95"/>
     <use x="656.664062" xlink:href="#DejaVuSans-69"/>
     <use x="719.847656" xlink:href="#DejaVuSans-78"/>
     <use x="794.652344" xlink:href="#DejaVuSans-95"/>
     <use x="844.652344" xlink:href="#DejaVuSans-67"/>
     <use x="914.476562" xlink:href="#DejaVuSans-79"/>
     <use x="993.1875" xlink:href="#DejaVuSans-77"/>
     <use x="1079.466797" xlink:href="#DejaVuSans-77"/>
     <use x="1165.746094" xlink:href="#DejaVuSans-85"/>
     <use x="1238.939453" xlink:href="#DejaVuSans-78"/>
    </g>
   </g>
   <g id="text_10">
    <!-- 0.7% -->
    <defs>
     <path d="M 8.203125 72.90625 
L 55.078125 72.90625 
L 55.078125 68.703125 
L 28.609375 0 
L 18.3125 0 
L 43.21875 64.59375 
L 8.203125 64.59375 
z
" id="DejaVuSans-55"/>
    </defs>
    <g transform="translate(169.028297 130.727836)scale(0.1 -0.1)">
     <use xlink:href="#DejaVuSans-48"/>
     <use x="63.623047" xlink:href="#DejaVuSans-46"/>
     <use x="95.410156" xlink:href="#DejaVuSans-55"/>
     <use x="159.033203" xlink:href="#DejaVuSans-37"/>
    </g>
   </g>
   <g id="text_11">
    <!-- ON_FOOT -->
    <g transform="translate(61.281367 209.884582)scale(0.1 -0.1)">
     <use xlink:href="#DejaVuSans-79"/>
     <use x="78.710938" xlink:href="#DejaVuSans-78"/>
     <use x="153.515625" xlink:href="#DejaVuSans-95"/>
     <use x="203.515625" xlink:href="#DejaVuSans-70"/>
     <use x="261.035156" xlink:href="#DejaVuSans-79"/>
     <use x="339.746094" xlink:href="#DejaVuSans-79"/>
     <use x="418.457031" xlink:href="#DejaVuSans-84"/>
    </g>
   </g>
   <g id="text_12">
    <!-- 30.3% -->
    <g transform="translate(150.528251 195.272788)scale(0.1 -0.1)">
     <use xlink:href="#DejaVuSans-51"/>
     <use x="63.623047" xlink:href="#DejaVuSans-48"/>
     <use x="127.246094" xlink:href="#DejaVuSans-46"/>
     <use x="159.033203" xlink:href="#DejaVuSans-51"/>
     <use x="222.65625" xlink:href="#DejaVuSans-37"/>
    </g>
   </g>
   <g id="text_13">
    <!-- ON_VEHICLE -->
    <g transform="translate(350.95854 235.938351)scale(0.1 -0.1)">
     <use xlink:href="#DejaVuSans-79"/>
     <use x="78.710938" xlink:href="#DejaVuSans-78"/>
     <use x="153.515625" xlink:href="#DejaVuSans-95"/>
     <use x="203.515625" xlink:href="#DejaVuSans-86"/>
     <use x="271.923828" xlink:href="#DejaVuSans-69"/>
     <use x="335.107422" xlink:href="#DejaVuSans-72"/>
     <use x="410.302734" xlink:href="#DejaVuSans-73"/>
     <use x="439.794922" xlink:href="#DejaVuSans-67"/>
     <use x="509.619141" xlink:href="#DejaVuSans-76"/>
     <use x="565.332031" xlink:href="#DejaVuSans-69"/>
    </g>
   </g>
   <g id="text_14">
    <!-- 46.7% -->
    <defs>
     <path d="M 33.015625 40.375 
Q 26.375 40.375 22.484375 35.828125 
Q 18.609375 31.296875 18.609375 23.390625 
Q 18.609375 15.53125 22.484375 10.953125 
Q 26.375 6.390625 33.015625 6.390625 
Q 39.65625 6.390625 43.53125 10.953125 
Q 47.40625 15.53125 47.40625 23.390625 
Q 47.40625 31.296875 43.53125 35.828125 
Q 39.65625 40.375 33.015625 40.375 
z
M 52.59375 71.296875 
L 52.59375 62.3125 
Q 48.875 64.0625 45.09375 64.984375 
Q 41.3125 65.921875 37.59375 65.921875 
Q 27.828125 65.921875 22.671875 59.328125 
Q 17.53125 52.734375 16.796875 39.40625 
Q 19.671875 43.65625 24.015625 45.921875 
Q 28.375 48.1875 33.59375 48.1875 
Q 44.578125 48.1875 50.953125 41.515625 
Q 57.328125 34.859375 57.328125 23.390625 
Q 57.328125 12.15625 50.6875 5.359375 
Q 44.046875 -1.421875 33.015625 -1.421875 
Q 20.359375 -1.421875 13.671875 8.265625 
Q 6.984375 17.96875 6.984375 36.375 
Q 6.984375 53.65625 15.1875 63.9375 
Q 23.390625 74.21875 37.203125 74.21875 
Q 40.921875 74.21875 44.703125 73.484375 
Q 48.484375 72.75 52.59375 71.296875 
z
" id="DejaVuSans-54"/>
    </defs>
    <g transform="translate(282.376028 209.483934)scale(0.1 -0.1)">
     <use xlink:href="#DejaVuSans-52"/>
     <use x="63.623047" xlink:href="#DejaVuSans-54"/>
     <use x="127.246094" xlink:href="#DejaVuSans-46"/>
     <use x="159.033203" xlink:href="#DejaVuSans-55"/>
     <use x="222.65625" xlink:href="#DejaVuSans-37"/>
    </g>
   </g>
   <g id="text_15">
    <!-- STILL -->
    <g transform="translate(304.766135 67.817238)scale(0.1 -0.1)">
     <use xlink:href="#DejaVuSans-83"/>
     <use x="63.476562" xlink:href="#DejaVuSans-84"/>
     <use x="124.560547" xlink:href="#DejaVuSans-73"/>
     <use x="154.052734" xlink:href="#DejaVuSans-76"/>
     <use x="209.765625" xlink:href="#DejaVuSans-76"/>
    </g>
   </g>
   <g id="text_16">
    <!-- 0.2% -->
    <defs>
     <path d="M 19.1875 8.296875 
L 53.609375 8.296875 
L 53.609375 0 
L 7.328125 0 
L 7.328125 8.296875 
Q 12.9375 14.109375 22.625 23.890625 
Q 32.328125 33.6875 34.8125 36.53125 
Q 39.546875 41.84375 41.421875 45.53125 
Q 43.3125 49.21875 43.3125 52.78125 
Q 43.3125 58.59375 39.234375 62.25 
Q 35.15625 65.921875 28.609375 65.921875 
Q 23.96875 65.921875 18.8125 64.3125 
Q 13.671875 62.703125 7.8125 59.421875 
L 7.8125 69.390625 
Q 13.765625 71.78125 18.9375 73 
Q 24.125 74.21875 28.421875 74.21875 
Q 39.75 74.21875 46.484375 68.546875 
Q 53.21875 62.890625 53.21875 53.421875 
Q 53.21875 48.921875 51.53125 44.890625 
Q 49.859375 40.875 45.40625 35.40625 
Q 44.1875 33.984375 37.640625 27.21875 
Q 31.109375 20.453125 19.1875 8.296875 
z
" id="DejaVuSans-50"/>
    </defs>
    <g transform="translate(260.36142 117.657504)scale(0.1 -0.1)">
     <use xlink:href="#DejaVuSans-48"/>
     <use x="63.623047" xlink:href="#DejaVuSans-46"/>
     <use x="95.410156" xlink:href="#DejaVuSans-50"/>
     <use x="159.033203" xlink:href="#DejaVuSans-37"/>
    </g>
   </g>
   <g id="text_17">
    <!-- TGV -->
    <g transform="translate(300.383911 65.149811)scale(0.1 -0.1)">
     <use xlink:href="#DejaVuSans-84"/>
     <use x="61.083984" xlink:href="#DejaVuSans-71"/>
     <use x="138.574219" xlink:href="#DejaVuSans-86"/>
    </g>
   </g>
   <g id="text_18">
    <!-- 1.1% -->
    <defs>
     <path d="M 12.40625 8.296875 
L 28.515625 8.296875 
L 28.515625 63.921875 
L 10.984375 60.40625 
L 10.984375 69.390625 
L 28.421875 72.90625 
L 38.28125 72.90625 
L 38.28125 8.296875 
L 54.390625 8.296875 
L 54.390625 0 
L 12.40625 0 
z
" id="DejaVuSans-49"/>
    </defs>
    <g transform="translate(257.971116 116.202543)scale(0.1 -0.1)">
     <use xlink:href="#DejaVuSans-49"/>
     <use x="63.623047" xlink:href="#DejaVuSans-46"/>
     <use x="95.410156" xlink:href="#DejaVuSans-49"/>
     <use x="159.033203" xlink:href="#DejaVuSans-37"/>
    </g>
   </g>
   <g id="text_19">
    <!-- TRANSPORT_EN_COMMUN -->
    <g transform="translate(79.160867 49.614647)scale(0.1 -0.1)">
     <use xlink:href="#DejaVuSans-84"/>
     <use x="61.083984" xlink:href="#DejaVuSans-82"/>
     <use x="130.503906" xlink:href="#DejaVuSans-65"/>
     <use x="198.912109" xlink:href="#DejaVuSans-78"/>
     <use x="273.716797" xlink:href="#DejaVuSans-83"/>
     <use x="337.193359" xlink:href="#DejaVuSans-80"/>
     <use x="397.496094" xlink:href="#DejaVuSans-79"/>
     <use x="476.207031" xlink:href="#DejaVuSans-82"/>
     <use x="545.580078" xlink:href="#DejaVuSans-84"/>
     <use x="606.664062" xlink:href="#DejaVuSans-95"/>
     <use x="656.664062" xlink:href="#DejaVuSans-69"/>
     <use x="719.847656" xlink:href="#DejaVuSans-78"/>
     <use x="794.652344" xlink:href="#DejaVuSans-95"/>
     <use x="844.652344" xlink:href="#DejaVuSans-67"/>
     <use x="914.476562" xlink:href="#DejaVuSans-79"/>
     <use x="993.1875" xlink:href="#DejaVuSans-77"/>
     <use x="1079.466797" xlink:href="#DejaVuSans-77"/>
     <use x="1165.746094" xlink:href="#DejaVuSans-85"/>
     <use x="1238.939453" xlink:href="#DejaVuSans-78"/>
    </g>
   </g>
   <g id="text_20">
    <!-- 21.7% -->
    <g transform="translate(205.783547 107.852823)scale(0.1 -0.1)">
     <use xlink:href="#DejaVuSans-50"/>
     <use x="63.623047" xlink:href="#DejaVuSans-49"/>
     <use x="127.246094" xlink:href="#DejaVuSans-46"/>
     <use x="159.033203" xlink:href="#DejaVuSans-55"/>
     <use x="222.65625" xlink:href="#DejaVuSans-37"/>
    </g>
   </g>
   <g id="text_21">
    <!-- ON_FOOT -->
    <g transform="translate(87.51659 93.707722)scale(0.1 -0.1)">
     <use xlink:href="#DejaVuSans-79"/>
     <use x="78.710938" xlink:href="#DejaVuSans-78"/>
     <use x="153.515625" xlink:href="#DejaVuSans-95"/>
     <use x="203.515625" xlink:href="#DejaVuSans-70"/>
     <use x="261.035156" xlink:href="#DejaVuSans-79"/>
     <use x="339.746094" xlink:href="#DejaVuSans-79"/>
     <use x="418.457031" xlink:href="#DejaVuSans-84"/>
    </g>
   </g>
   <g id="text_22">
    <!-- 0.0% -->
    <g transform="translate(168.019623 131.903592)scale(0.1 -0.1)">
     <use xlink:href="#DejaVuSans-48"/>
     <use x="63.623047" xlink:href="#DejaVuSans-46"/>
     <use x="95.410156" xlink:href="#DejaVuSans-48"/>
     <use x="159.033203" xlink:href="#DejaVuSans-37"/>
    </g>
   </g>
   <g id="text_23">
    <!-- ON_VEHICLE -->
    <g transform="translate(325.98678 270.041599)scale(0.1 -0.1)">
     <use xlink:href="#DejaVuSans-79"/>
     <use x="78.710938" xlink:href="#DejaVuSans-78"/>
     <use x="153.515625" xlink:href="#DejaVuSans-95"/>
     <use x="203.515625" xlink:href="#DejaVuSans-86"/>
     <use x="271.923828" xlink:href="#DejaVuSans-69"/>
     <use x="335.107422" xlink:href="#DejaVuSans-72"/>
     <use x="410.302734" xlink:href="#DejaVuSans-73"/>
     <use x="439.794922" xlink:href="#DejaVuSans-67"/>
     <use x="509.619141" xlink:href="#DejaVuSans-76"/>
     <use x="565.332031" xlink:href="#DejaVuSans-69"/>
    </g>
   </g>
   <g id="text_24">
    <!-- 96.9% -->
    <g transform="translate(268.755068 228.085706)scale(0.1 -0.1)">
     <use xlink:href="#DejaVuSans-57"/>
     <use x="63.623047" xlink:href="#DejaVuSans-54"/>
     <use x="127.246094" xlink:href="#DejaVuSans-46"/>
     <use x="159.033203" xlink:href="#DejaVuSans-57"/>
     <use x="222.65625" xlink:href="#DejaVuSans-37"/>
    </g>
   </g>
   <g id="text_25">
    <!-- STILL -->
    <g transform="translate(126.947155 76.267586)scale(0.1 -0.1)">
     <use xlink:href="#DejaVuSans-83"/>
     <use x="63.476562" xlink:href="#DejaVuSans-84"/>
     <use x="124.560547" xlink:href="#DejaVuSans-73"/>
     <use x="154.052734" xlink:href="#DejaVuSans-76"/>
     <use x="209.765625" xlink:href="#DejaVuSans-76"/>
    </g>
   </g>
   <g id="text_26">
    <!-- 0.0% -->
    <g transform="translate(177.851067 122.266784)scale(0.1 -0.1)">
     <use xlink:href="#DejaVuSans-48"/>
     <use x="63.623047" xlink:href="#DejaVuSans-46"/>
     <use x="95.410156" xlink:href="#DejaVuSans-48"/>
     <use x="159.033203" xlink:href="#DejaVuSans-37"/>
    </g>
   </g>
   <g id="text_27">
    <!-- TGV -->
    <g transform="translate(132.73965 76.316458)scale(0.1 -0.1)">
     <use xlink:href="#DejaVuSans-84"/>
     <use x="61.083984" xlink:href="#DejaVuSans-71"/>
     <use x="138.574219" xlink:href="#DejaVuSans-86"/>
    </g>
   </g>
   <g id="text_28">
    <!-- 0.0% -->
    <g transform="translate(177.817996 122.293442)scale(0.1 -0.1)">
     <use xlink:href="#DejaVuSans-48"/>
     <use x="63.623047" xlink:href="#DejaVuSans-46"/>
     <use x="95.410156" xlink:href="#DejaVuSans-48"/>
     <use x="159.033203" xlink:href="#DejaVuSans-37"/>
    </g>
   </g>
   <g id="text_29">
    <!-- TRANSPORT_EN_COMMUN -->
    <g transform="translate(12.621329 84.489893)scale(0.1 -0.1)">
     <use xlink:href="#DejaVuSans-84"/>
     <use x="61.083984" xlink:href="#DejaVuSans-82"/>
     <use x="130.503906" xlink:href="#DejaVuSans-65"/>
     <use x="198.912109" xlink:href="#DejaVuSans-78"/>
     <use x="273.716797" xlink:href="#DejaVuSans-83"/>
     <use x="337.193359" xlink:href="#DejaVuSans-80"/>
     <use x="397.496094" xlink:href="#DejaVuSans-79"/>
     <use x="476.207031" xlink:href="#DejaVuSans-82"/>
     <use x="545.580078" xlink:href="#DejaVuSans-84"/>
     <use x="606.664062" xlink:href="#DejaVuSans-95"/>
     <use x="656.664062" xlink:href="#DejaVuSans-69"/>
     <use x="719.847656" xlink:href="#DejaVuSans-78"/>
     <use x="794.652344" xlink:href="#DejaVuSans-95"/>
     <use x="844.652344" xlink:href="#DejaVuSans-67"/>
     <use x="914.476562" xlink:href="#DejaVuSans-79"/>
     <use x="993.1875" xlink:href="#DejaVuSans-77"/>
     <use x="1079.466797" xlink:href="#DejaVuSans-77"/>
     <use x="1165.746094" xlink:href="#DejaVuSans-85"/>
     <use x="1238.939453" xlink:href="#DejaVuSans-78"/>
    </g>
   </g>
   <g id="text_30">
    <!-- 3.1% -->
    <g transform="translate(172.670503 126.875684)scale(0.1 -0.1)">
     <use xlink:href="#DejaVuSans-51"/>
     <use x="63.623047" xlink:href="#DejaVuSans-46"/>
     <use x="95.410156" xlink:href="#DejaVuSans-49"/>
     <use x="159.033203" xlink:href="#DejaVuSans-37"/>
    </g>
   </g>
   <g id="text_31">
    <!-- Carbon Footprint -->
    <defs>
     <path d="M 34.28125 27.484375 
Q 23.390625 27.484375 19.1875 25 
Q 14.984375 22.515625 14.984375 16.5 
Q 14.984375 11.71875 18.140625 8.90625 
Q 21.296875 6.109375 26.703125 6.109375 
Q 34.1875 6.109375 38.703125 11.40625 
Q 43.21875 16.703125 43.21875 25.484375 
L 43.21875 27.484375 
z
M 52.203125 31.203125 
L 52.203125 0 
L 43.21875 0 
L 43.21875 8.296875 
Q 40.140625 3.328125 35.546875 0.953125 
Q 30.953125 -1.421875 24.3125 -1.421875 
Q 15.921875 -1.421875 10.953125 3.296875 
Q 6 8.015625 6 15.921875 
Q 6 25.140625 12.171875 29.828125 
Q 18.359375 34.515625 30.609375 34.515625 
L 43.21875 34.515625 
L 43.21875 35.40625 
Q 43.21875 41.609375 39.140625 45 
Q 35.0625 48.390625 27.6875 48.390625 
Q 23 48.390625 18.546875 47.265625 
Q 14.109375 46.140625 10.015625 43.890625 
L 10.015625 52.203125 
Q 14.9375 54.109375 19.578125 55.046875 
Q 24.21875 56 28.609375 56 
Q 40.484375 56 46.34375 49.84375 
Q 52.203125 43.703125 52.203125 31.203125 
z
" id="DejaVuSans-97"/>
     <path d="M 41.109375 46.296875 
Q 39.59375 47.171875 37.8125 47.578125 
Q 36.03125 48 33.890625 48 
Q 26.265625 48 22.1875 43.046875 
Q 18.109375 38.09375 18.109375 28.8125 
L 18.109375 0 
L 9.078125 0 
L 9.078125 54.6875 
L 18.109375 54.6875 
L 18.109375 46.1875 
Q 20.953125 51.171875 25.484375 53.578125 
Q 30.03125 56 36.53125 56 
Q 37.453125 56 38.578125 55.875 
Q 39.703125 55.765625 41.0625 55.515625 
z
" id="DejaVuSans-114"/>
     <path d="M 48.6875 27.296875 
Q 48.6875 37.203125 44.609375 42.84375 
Q 40.53125 48.484375 33.40625 48.484375 
Q 26.265625 48.484375 22.1875 42.84375 
Q 18.109375 37.203125 18.109375 27.296875 
Q 18.109375 17.390625 22.1875 11.75 
Q 26.265625 6.109375 33.40625 6.109375 
Q 40.53125 6.109375 44.609375 11.75 
Q 48.6875 17.390625 48.6875 27.296875 
z
M 18.109375 46.390625 
Q 20.953125 51.265625 25.265625 53.625 
Q 29.59375 56 35.59375 56 
Q 45.5625 56 51.78125 48.09375 
Q 58.015625 40.1875 58.015625 27.296875 
Q 58.015625 14.40625 51.78125 6.484375 
Q 45.5625 -1.421875 35.59375 -1.421875 
Q 29.59375 -1.421875 25.265625 0.953125 
Q 20.953125 3.328125 18.109375 8.203125 
L 18.109375 0 
L 9.078125 0 
L 9.078125 75.984375 
L 18.109375 75.984375 
z
" id="DejaVuSans-98"/>
     <path d="M 30.609375 48.390625 
Q 23.390625 48.390625 19.1875 42.75 
Q 14.984375 37.109375 14.984375 27.296875 
Q 14.984375 17.484375 19.15625 11.84375 
Q 23.34375 6.203125 30.609375 6.203125 
Q 37.796875 6.203125 41.984375 11.859375 
Q 46.1875 17.53125 46.1875 27.296875 
Q 46.1875 37.015625 41.984375 42.703125 
Q 37.796875 48.390625 30.609375 48.390625 
z
M 30.609375 56 
Q 42.328125 56 49.015625 48.375 
Q 55.71875 40.765625 55.71875 27.296875 
Q 55.71875 13.875 49.015625 6.21875 
Q 42.328125 -1.421875 30.609375 -1.421875 
Q 18.84375 -1.421875 12.171875 6.21875 
Q 5.515625 13.875 5.515625 27.296875 
Q 5.515625 40.765625 12.171875 48.375 
Q 18.84375 56 30.609375 56 
z
" id="DejaVuSans-111"/>
     <path d="M 54.890625 33.015625 
L 54.890625 0 
L 45.90625 0 
L 45.90625 32.71875 
Q 45.90625 40.484375 42.875 44.328125 
Q 39.84375 48.1875 33.796875 48.1875 
Q 26.515625 48.1875 22.3125 43.546875 
Q 18.109375 38.921875 18.109375 30.90625 
L 18.109375 0 
L 9.078125 0 
L 9.078125 54.6875 
L 18.109375 54.6875 
L 18.109375 46.1875 
Q 21.34375 51.125 25.703125 53.5625 
Q 30.078125 56 35.796875 56 
Q 45.21875 56 50.046875 50.171875 
Q 54.890625 44.34375 54.890625 33.015625 
z
" id="DejaVuSans-110"/>
     <path id="DejaVuSans-32"/>
     <path d="M 18.3125 70.21875 
L 18.3125 54.6875 
L 36.8125 54.6875 
L 36.8125 47.703125 
L 18.3125 47.703125 
L 18.3125 18.015625 
Q 18.3125 11.328125 20.140625 9.421875 
Q 21.96875 7.515625 27.59375 7.515625 
L 36.8125 7.515625 
L 36.8125 0 
L 27.59375 0 
Q 17.1875 0 13.234375 3.875 
Q 9.28125 7.765625 9.28125 18.015625 
L 9.28125 47.703125 
L 2.6875 47.703125 
L 2.6875 54.6875 
L 9.28125 54.6875 
L 9.28125 70.21875 
z
" id="DejaVuSans-116"/>
     <path d="M 18.109375 8.203125 
L 18.109375 -20.796875 
L 9.078125 -20.796875 
L 9.078125 54.6875 
L 18.109375 54.6875 
L 18.109375 46.390625 
Q 20.953125 51.265625 25.265625 53.625 
Q 29.59375 56 35.59375 56 
Q 45.5625 56 51.78125 48.09375 
Q 58.015625 40.1875 58.015625 27.296875 
Q 58.015625 14.40625 51.78125 6.484375 
Q 45.5625 -1.421875 35.59375 -1.421875 
Q 29.59375 -1.421875 25.265625 0.953125 
Q 20.953125 3.328125 18.109375 8.203125 
z
M 48.6875 27.296875 
Q 48.6875 37.203125 44.609375 42.84375 
Q 40.53125 48.484375 33.40625 48.484375 
Q 26.265625 48.484375 22.1875 42.84375 
Q 18.109375 37.203125 18.109375 27.296875 
Q 18.109375 17.390625 22.1875 11.75 
Q 26.265625 6.109375 33.40625 6.109375 
Q 40.53125 6.109375 44.609375 11.75 
Q 48.6875 17.390625 48.6875 27.296875 
z
" id="DejaVuSans-112"/>
     <path d="M 9.421875 54.6875 
L 18.40625 54.6875 
L 18.40625 0 
L 9.421875 0 
z
M 9.421875 75.984375 
L 18.40625 75.984375 
L 18.40625 64.59375 
L 9.421875 64.59375 
z
" id="DejaVuSans-105"/>
    </defs>
    <g transform="translate(185.397188 35.472)scale(0.12 -0.12)">
     <use xlink:href="#DejaVuSans-67"/>
     <use x="69.824219" xlink:href="#DejaVuSans-97"/>
     <use x="131.103516" xlink:href="#DejaVuSans-114"/>
     <use x="172.216797" xlink:href="#DejaVuSans-98"/>
     <use x="235.693359" xlink:href="#DejaVuSans-111"/>
     <use x="296.875" xlink:href="#DejaVuSans-110"/>
     <use x="360.253906" xlink:href="#DejaVuSans-32"/>
     <use x="392.041016" xlink:href="#DejaVuSans-70"/>
     <use x="449.513672" xlink:href="#DejaVuSans-111"/>
     <use x="510.695312" xlink:href="#DejaVuSans-111"/>
     <use x="571.876953" xlink:href="#DejaVuSans-116"/>
     <use x="611.085938" xlink:href="#DejaVuSans-112"/>
     <use x="674.5625" xlink:href="#DejaVuSans-114"/>
     <use x="715.675781" xlink:href="#DejaVuSans-105"/>
     <use x="743.458984" xlink:href="#DejaVuSans-110"/>
     <use x="806.837891" xlink:href="#DejaVuSans-116"/>
    </g>
   </g>
  </g>
 </g>
</svg>
